# xmcd
#
# Track frame offsets: 
#        150
#        10277
#        20962
#        33120
#        46085
#        58837
#        73205
#        81952
#        91350
#        103907
#        116175
#        126782
#        139662
#        151152
#        163915
#        172990
#        184075
#        193975
#        209247
#        218822
#        232077
#        243217
#        253797
#        267435
#
# Disc length: 3703 seconds
#
# Revision: 2
# Processed by: cddbd v1.5.2PL0 Copyright (c) Steve Scherf et al.
# Submitted via: ExactAudioCopy v0.99pb4
#
DISCID=6d0e7518
DTITLE=Various Artist - Deep Harmonica Blues
DYEAR=1996
DGENRE=Blues
TTITLE0=Jerry McCain and His Upstarts - Courtin In A Cadillac
TTITLE1=Jerry McCain and His Upstarts - Thats What They Want
TTITLE2=Blues Rockers - Calling All Cows
TTITLE3=Blues Rockers - Johnny Mae
TTITLE4=Baby Boy Warren and Sonny Boy Williamson - Not Welcome Anymore
TTITLE5=Baby Boy Warren and Sonny Boy Williamson - Chuc-A-Luck (Chicken)
TTITLE6=Little Sonny - Love Shock
TTITLE7=Little Sonny - I'll Love You Baby (Untill The Day I Die)
TTITLE8=Baby Boy Warren With Sonny Boy Williamson - Bring Me My Machin
TTITLE8=e Gun
TTITLE9=Baby Boy Warren With Sonny Boy Williamson - Hello Stranger
TTITLE10=Ole Sonny Boy - You Better Change
TTITLE11=Ole Sonny Boy - Blues And Misery
TTITLE12=Jerry McCain and His Upstarts - You Don't Love Me No More
TTITLE13=Jerry McCain and His Upstarts - Things Ain't Right
TTITLE14=Lightnin' Slim - Goin' Home
TTITLE15=Lightnin' Slim - I'm Grown
TTITLE16=Slim Harpo - Wonderin' And Worryin'
TTITLE17=Lazy Lester - The Call Me Lazy
TTITLE18=Whisperin Smith - Harmonica Twist
TTITLE19=Whisperin Smith - Please Give Me One More Chance
TTITLE20=Jimmy Anderson - Shut Your Mouth
TTITLE21=Jimmy Anderson - Rats And Roaches On Your Mind
TTITLE22=Jolly George - When I Met You Baby
TTITLE23=Jolly George - She's Got Me
EXTD=ID3G: 0
EXTT0=
EXTT1=
EXTT2=
EXTT3=
EXTT4=
EXTT5=
EXTT6=
EXTT7=
EXTT8=
EXTT9=
EXTT10=
EXTT11=
EXTT12=
EXTT13=
EXTT14=
EXTT15=
EXTT16=
EXTT17=
EXTT18=
EXTT19=
EXTT20=
EXTT21=
EXTT22=
EXTT23=
PLAYORDER=
